<?xml version="1.0" encoding="UTF-8"?>
<svg version="1.1" xmlns="http://www.w3.org/2000/svg" width="478" height="522">
<path d="M0 0 C4.20983857 1.40327952 5.1549617 4.36556385 7.1875 8.0625 C16.79688544 24.93283796 27.87568414 40.91987657 39.70117188 56.30419922 C41.7459939 58.97399881 43.75294866 61.66920491 45.75 64.375 C46.38421875 65.22835937 47.0184375 66.08171875 47.671875 66.9609375 C49 69 49 69 49 71 C49.66 71 50.32 71 51 71 C52.2890625 72.4609375 52.2890625 72.4609375 53.625 74.375 C54.07101562 75.00148438 54.51703125 75.62796875 54.9765625 76.2734375 C56 78 56 78 56 80 C56.66 80 57.32 80 58 80 C59.40234375 81.828125 59.40234375 81.828125 60.9375 84.25 C62.4588451 86.63123581 63.95450039 88.94157556 65.69140625 91.171875 C67 93 67 93 67 95 C67.66 95 68.32 95 69 95 C70.18579102 96.37011719 70.18579102 96.37011719 71.50390625 98.296875 C71.9927832 99.00239502 72.48166016 99.70791504 72.98535156 100.43481445 C73.50581055 101.19882568 74.02626953 101.96283691 74.5625 102.75 C75.6508622 104.32264094 76.74071526 105.89425112 77.83203125 107.46484375 C78.37037598 108.24069824 78.9087207 109.01655273 79.46337891 109.81591797 C81.49371633 112.70174551 83.60963171 115.50723545 85.75 118.3125 C89.40034149 123.12910583 92.78082944 128.07813433 96.09765625 133.12890625 C97.87361175 135.80924977 99.70239639 138.44012676 101.5625 141.0625 C105.22424957 146.26384883 108.63477628 151.60337699 112 157 C112.59683594 157.928125 113.19367188 158.85625 113.80859375 159.8125 C114.64583984 161.1428125 114.64583984 161.1428125 115.5 162.5 C116.0053125 163.2940625 116.510625 164.088125 117.03125 164.90625 C118 167 118 167 117 170 C116.07058594 169.72285156 115.14117187 169.44570312 114.18359375 169.16015625 C112.94738281 168.79792969 111.71117187 168.43570313 110.4375 168.0625 C109.21933594 167.70285156 108.00117188 167.34320313 106.74609375 166.97265625 C86.9824163 161.84110705 64.91472351 164.9736695 47.22265625 175.078125 C23.60417275 189.36960442 9.23187073 211.04737833 2.47265625 237.5703125 C0.19480498 247.63414416 -0.03736642 257.94161931 -0.58129883 268.21630859 C-1.32847923 281.92824616 -2.34288109 294.91856154 -10.5 306.5 C-10.87769531 307.0671875 -11.25539062 307.634375 -11.64453125 308.21875 C-13.93053284 311.61240184 -16.29510201 314.92833618 -19 318 C-19.66 318 -20.32 318 -21 318 C-21 318.66 -21 319.32 -21 320 C-21.66 320 -22.32 320 -23 320 C-23.25652344 320.58523438 -23.51304687 321.17046875 -23.77734375 321.7734375 C-25.10562162 324.19234608 -26.56524801 325.73198872 -28.5625 327.625 C-31.14015389 330.04521959 -31.14015389 330.04521959 -33 333 C-33.66 333 -34.32 333 -35 333 C-35.24492187 333.55429687 -35.48984375 334.10859375 -35.7421875 334.6796875 C-37.24755937 337.45667785 -39.12502799 339.6790412 -41.125 342.125 C-53.44511174 358.09142284 -58.34977477 377.39034445 -56.51171875 397.3125 C-54.81180799 409.56223863 -50.95415829 420.38265015 -44.26953125 430.7734375 C-43.05497011 432.90359088 -42.53533099 434.63186719 -42 437 C-49.06579664 435.69178536 -55.07245589 433.42241616 -61.5625 430.375 C-62.93245117 429.74464844 -62.93245117 429.74464844 -64.33007812 429.1015625 C-66.55713265 428.07548502 -68.78016413 427.04157836 -71 426 C-71 425.34 -71 424.68 -71 424 C-71.53109375 423.91105469 -72.0621875 423.82210938 -72.609375 423.73046875 C-80.51918698 421.31358176 -90.00741576 414.68480801 -96 409 C-96 408.34 -96 407.68 -96 407 C-96.598125 406.71125 -97.19625 406.4225 -97.8125 406.125 C-100 405 -100 405 -103 403 C-103 402.34 -103 401.68 -103 401 C-103.66 401 -104.32 401 -105 401 C-105 400.34 -105 399.68 -105 399 C-106.32 398.34 -107.64 397.68 -109 397 C-109 396.34 -109 395.68 -109 395 C-109.66 395 -110.32 395 -111 395 C-116.18866107 390.01204281 -120.3865598 383.95821924 -124.5625 378.125 C-125.36977539 377.01705078 -125.36977539 377.01705078 -126.19335938 375.88671875 C-132.4506427 367.19730244 -137.64857152 358.19133759 -142.0625 348.4375 C-142.49369141 347.48657471 -142.92488281 346.53564941 -143.36914062 345.5559082 C-147.0587788 337.22421959 -149.83264558 328.84099991 -152 320 C-152.1738623 319.29391602 -152.34772461 318.58783203 -152.52685547 317.86035156 C-153.81588741 312.39180348 -154.59142015 306.96496252 -155.125 301.375 C-155.2084668 300.50109619 -155.29193359 299.62719238 -155.37792969 298.72680664 C-159.05649519 257.70329399 -145.94969913 217.0419353 -124.40625 182.3203125 C-122.96568527 179.9433807 -121.66874656 177.52212282 -120.375 175.0625 C-116.12970062 167.18797371 -111.21277346 159.71384799 -106.39501953 152.18212891 C-105.19509439 150.30517215 -103.99990987 148.42539551 -102.80859375 146.54296875 C-101.67463164 144.75263117 -100.53715214 142.96451137 -99.39453125 141.1796875 C-98.50832669 139.79452742 -97.62979632 138.40440417 -96.76171875 137.0078125 C-95.89334949 135.63736793 -94.95635494 134.31056047 -94 133 C-93.34 133 -92.68 133 -92 133 C-91.88970459 132.42475586 -91.77940918 131.84951172 -91.66577148 131.25683594 C-90.43312603 127.07840743 -87.57035131 123.76273947 -85.0625 120.25 C-84.23588867 119.06083984 -84.23588867 119.06083984 -83.39257812 117.84765625 C-82.86212891 117.09871094 -82.33167969 116.34976563 -81.78515625 115.578125 C-81.29926025 114.89137695 -80.81336426 114.20462891 -80.31274414 113.49707031 C-79.87953857 113.00303711 -79.44633301 112.50900391 -79 112 C-78.34 112 -77.68 112 -77 112 C-76.62875 110.948125 -76.62875 110.948125 -76.25 109.875 C-74.82819762 106.60485452 -73.12753712 103.858878 -71 101 C-70.34 101 -69.68 101 -69 101 C-68.7421875 100.28457031 -68.484375 99.56914062 -68.21875 98.83203125 C-66.92615235 95.82839889 -65.3722291 93.36494628 -63.5 90.6875 C-62.8915625 89.80449219 -62.283125 88.92148438 -61.65625 88.01171875 C-61.1096875 87.34785156 -60.563125 86.68398437 -60 86 C-59.34 86 -58.68 86 -58 86 C-57.75121094 85.278125 -57.50242187 84.55625 -57.24609375 83.8125 C-55.8808399 80.7310493 -54.22503259 78.57732003 -52.0625 76 C-49.92926249 73.44808971 -48.04006637 71.06917934 -46.37109375 68.1875 C-45.91863281 67.465625 -45.46617187 66.74375 -45 66 C-44.34 66 -43.68 66 -43 66 C-42.67708984 64.99259766 -42.67708984 64.99259766 -42.34765625 63.96484375 C-40.56568993 60.04451785 -38.07813394 56.94368978 -35.4375 53.5625 C-30.86829174 47.62128575 -26.6432318 41.58280561 -22.76733398 35.16625977 C-21.8937122 33.74628627 -20.95320279 32.36782463 -20 31 C-19.34 31 -18.68 31 -18 31 C-17.72526855 30.27095459 -17.45053711 29.54190918 -17.16748047 28.79077148 C-16.05910867 26.1412947 -14.80240443 23.80357006 -13.3203125 21.34765625 C-12.80339844 20.48849609 -12.28648437 19.62933594 -11.75390625 18.74414062 C-10.94759766 17.41672852 -10.94759766 17.41672852 -10.125 16.0625 C-9.59519531 15.18142578 -9.06539062 14.30035156 -8.51953125 13.39257812 C-5.77992567 8.85489395 -2.9867465 4.37911866 0 0 Z M-91 196 C-90 198 -90 198 -90 198 Z M-92 198 C-93.37562854 199.28965176 -94.70766393 200.62689293 -96 202 C-96 202.66 -96 203.32 -96 204 C-96.66 204 -97.32 204 -98 204 C-98.29132813 204.53367188 -98.58265625 205.06734375 -98.8828125 205.6171875 C-101.63961351 210.62797676 -104.50244773 215.55804419 -107.47265625 220.4453125 C-107.97667969 221.28835938 -108.48070312 222.13140625 -109 223 C-109.65871094 224.09441406 -110.31742188 225.18882812 -110.99609375 226.31640625 C-126.04696693 252.84022261 -127.21750019 287.99135353 -119.62548828 316.80126953 C-115.86162792 330.03207611 -109.31500748 341.83817366 -100 352 C-99.67 352 -99.34 352 -99 352 C-99.64994305 346.41182985 -100.48908516 340.87550233 -101.40917969 335.32568359 C-102.30657499 329.88906048 -103.15629482 324.44517707 -104 319 C-104.12584473 318.20271484 -104.25168945 317.40542969 -104.38134766 316.58398438 C-110.22575206 278.34563233 -103.71901495 240.06851664 -91.65429688 203.69726562 C-90.7294724 200.92665158 -90.7294724 200.92665158 -92 198 Z " fill="#568BBF" transform="translate(254,45)"/>
<path d="M0 0 C0.73347656 0.47050781 1.46695313 0.94101563 2.22265625 1.42578125 C4.1875 2.75 4.1875 2.75 7 5 C7 5.66 7 6.32 7 7 C7.59167969 7.25394531 8.18335938 7.50789063 8.79296875 7.76953125 C17.44590778 12.5937362 21.27450899 24.35686085 25 33 C25.5878125 34.299375 25.5878125 34.299375 26.1875 35.625 C33.44910254 52.41745587 35.41911659 70.83107277 35.375 88.9375 C35.37518127 90.08611511 35.37518127 90.08611511 35.37536621 91.25793457 C35.3463785 104.20600399 34.11328516 116.40070868 31 129 C30.69522449 130.35515687 30.39176331 131.71061024 30.08984375 133.06640625 C26.34532559 148.61183012 19.32029176 162.87278759 12 177 C11.34 177 10.68 177 10 177 C9.88068115 177.58426758 9.7613623 178.16853516 9.63842773 178.77050781 C8.55902765 182.53994628 6.23670426 185.52376143 4.0625 188.75 C3.60681641 189.44738281 3.15113281 190.14476562 2.68164062 190.86328125 C1.51112539 192.61476963 0.26127982 194.31269722 -1 196 C-1.66 196 -2.32 196 -3 196 C-3 196.66 -3 197.32 -3 198 C-3.66 198 -4.32 198 -5 198 C-5.309375 198.61875 -5.61875 199.2375 -5.9375 199.875 C-6.625 201.25 -7.3125 202.625 -8 204 C-8.66 204 -9.32 204 -10 204 C-10.2475 204.5775 -10.495 205.155 -10.75 205.75 C-12.18299988 208.32939979 -13.78424676 210.06121592 -16 212 C-16.66 212 -17.32 212 -18 212 C-18.33 212.99 -18.66 213.98 -19 215 C-24.46511628 220 -24.46511628 220 -27 220 C-27 220.66 -27 221.32 -27 222 C-29.30078125 223.9453125 -29.30078125 223.9453125 -32.3125 226.125 C-33.29863281 226.84945312 -34.28476562 227.57390625 -35.30078125 228.3203125 C-38 230 -38 230 -41 230 C-41 230.66 -41 231.32 -41 232 C-41.99 232 -42.98 232 -44 232 C-44 232.66 -44 233.32 -44 234 C-63.48309236 243.96406881 -63.48309236 243.96406881 -72 247 C-72.63615234 247.22848633 -73.27230469 247.45697266 -73.92773438 247.69238281 C-84.21309772 251.2475201 -94.06234251 252.481136 -104.9375 252.5625 C-106.0500415 252.57708252 -107.16258301 252.59166504 -108.30883789 252.60668945 C-122.44187121 252.43316832 -136.0106379 247.07662235 -146.25 237.1875 C-149 234.32619048 -149 234.32619048 -149 232 C-149.66 232 -150.32 232 -151 232 C-159.70034023 221.3067247 -164.14918649 206.74687234 -163 193 C-161.60895955 182.05034216 -158.35253389 173.51724518 -153 164 C-152.34 164 -151.68 164 -151 164 C-151 163.01 -151 162.02 -151 161 C-150.34 161 -149.68 161 -149 161 C-148.7525 160.278125 -148.505 159.55625 -148.25 158.8125 C-146.87730408 155.72393418 -145.27646704 153.48988582 -143 151 C-142.34 151 -141.68 151 -141 151 C-140.67 150.01 -140.34 149.02 -140 148 C-138.86255133 146.82909696 -137.71840326 145.66366461 -136.53515625 144.5390625 C-134.03677303 142.03432207 -131.81488575 139.29014011 -129.55078125 136.57421875 C-129.03902344 136.05472656 -128.52726562 135.53523437 -128 135 C-127.34 135 -126.68 135 -126 135 C-125.75894531 134.47277344 -125.51789063 133.94554687 -125.26953125 133.40234375 C-123.96084998 130.92591611 -122.44840738 128.6477541 -120.87744141 126.33154297 C-116.09246918 119.21789735 -112.61909792 112.20788169 -110 104 C-109.69320312 103.11828125 -109.38640625 102.2365625 -109.0703125 101.328125 C-106.74188645 93.65540678 -106.65463291 86.01559791 -106.40649414 78.06738281 C-105.45675202 50.89554582 -99.57321698 25.48220408 -79.125 6.25 C-57.27545185 -12.55385356 -24.44504429 -16.03561927 0 0 Z M-39 20 C-55.24863694 31.94639737 -66.10520407 45.61007535 -69.3059082 65.94335938 C-70.01202667 71.72403148 -70.10026268 77.49725547 -70.17578125 83.3125 C-70.18782089 84.17107605 -70.19986053 85.0296521 -70.21226501 85.91424561 C-70.26051314 89.50094356 -70.30791744 93.0873211 -70.32592773 96.67431641 C-70.41914017 112.28524878 -71.90946186 127.482986 -78.3125 141.9375 C-78.60954834 142.63222412 -78.90659668 143.32694824 -79.21264648 144.04272461 C-82.98825099 152.61009869 -88.11627022 160.13557696 -93.93359375 167.44140625 C-95.18822797 168.96035222 -95.18822797 168.96035222 -95 171 C-95.66 171 -96.32 171 -97 171 C-98.60480279 172.54775998 -98.60480279 172.54775998 -100.25 174.5625 C-100.86488281 175.28566406 -101.47976563 176.00882813 -102.11328125 176.75390625 C-102.73589844 177.49511719 -103.35851562 178.23632812 -104 179 C-105.14473463 180.33427675 -106.29046728 181.66769833 -107.4375 183 C-108.283125 183.99 -109.12875 184.98 -110 186 C-100.13806108 183.40475291 -90.70079251 176.50028874 -83 170 C-83 169.34 -83 168.68 -83 168 C-82.34 168 -81.68 168 -81 168 C-81 167.34 -81 166.68 -81 166 C-80.34 166 -79.68 166 -79 166 C-79 165.34 -79 164.68 -79 164 C-78.42894531 163.78730469 -77.85789062 163.57460938 -77.26953125 163.35546875 C-65.8066639 156.50931562 -59.41288873 136.21594151 -55.7265625 124.1953125 C-53.93532102 116.31770211 -53.89346451 108.50157464 -54.0078125 100.45703125 C-54.02533578 98.22591606 -54.04224339 95.99479597 -54.05859375 93.76367188 C-54.08942468 90.29274533 -54.12487172 86.82207203 -54.17138672 83.35131836 C-54.46548699 60.12896232 -51.98390449 41.25823074 -38 22 C-38.495 21.01 -38.495 21.01 -39 20 Z " fill="#3A9181" transform="translate(377,237)"/>
<path d="M0 0 C0.66 0 1.32 0 2 0 C1.9278125 0.95132812 1.855625 1.90265625 1.78125 2.8828125 C0.75018156 17.91325405 0.90319779 32.94353305 1 48 C1.66 48.33 2.32 48.66 3 49 C3 53.62 3 58.24 3 63 C2.67 63 2.34 63 2 63 C0.49004564 56.81381889 -0.52011033 50.71202827 -1.125 44.375 C-1.2502002 43.06414429 -1.2502002 43.06414429 -1.37792969 41.72680664 C-2.64477619 27.59888274 -1.69172457 14.03225115 0 0 Z " fill="#7C9EBC" transform="translate(100,302)"/>
<path d="M0 0 C0.556875 0.309375 1.11375 0.61875 1.6875 0.9375 C4.12540433 2.05761821 6.36224186 2.56037364 9 3 C9 3.66 9 4.32 9 5 C19.99225502 6.29690981 30.94722405 7.38052288 42 8 C42 8.33 42 8.66 42 9 C37.75024041 9.11789773 33.50091095 9.18781321 29.25 9.25 C28.06277344 9.28351563 26.87554687 9.31703125 25.65234375 9.3515625 C15.84890011 9.45870396 7.69658816 7.53446737 -1 3 C-0.67 2.01 -0.34 1.02 0 0 Z " fill="#659A90" transform="translate(244,480)"/>
<path d="M0 0 C0.33 0 0.66 0 1 0 C1 8.25 1 16.5 1 25 C0.34 25 -0.32 25 -1 25 C-1 32.26 -1 39.52 -1 47 C-1.33 47 -1.66 47 -2 47 C-2.41277905 13.29182746 -2.41277905 13.29182746 0 0 Z " fill="#7F9FB9" transform="translate(149,299)"/>
<path d="M0 0 C0.33 0.99 0.66 1.98 1 3 C1.99 3 2.98 3 4 3 C4.33 2.01 4.66 1.02 5 0 C8.22265625 5.17578125 8.22265625 5.17578125 9 7 C8.67 7.99 8.34 8.98 8 10 C3.38 8.68 -1.24 7.36 -6 6 C-6 5.34 -6 4.68 -6 4 C-4.7934375 3.566875 -4.7934375 3.566875 -3.5625 3.125 C-0.8673532 2.26737432 -0.8673532 2.26737432 0 0 Z " fill="#7D9FBC" transform="translate(363,205)"/>
<path d="M0 0 C0.33 0 0.66 0 1 0 C1.14695313 0.76441406 1.29390625 1.52882813 1.4453125 2.31640625 C3.10739184 10.25426791 5.56295733 17.42372933 8.6953125 24.8828125 C10 28 10 28 11 31 C10.34 31.66 9.68 32.32 9 33 C8.71125 32.030625 8.4225 31.06125 8.125 30.0625 C7.35785318 26.89335797 7.35785318 26.89335797 5 26 C3.43055425 21.38398308 2.59159719 16.83137707 2 12 C1.34 12 0.68 12 0 12 C0 8.04 0 4.08 0 0 Z " fill="#7AA1BD" transform="translate(132,351)"/>
<path d="M0 0 C4.07823697 4.80649357 7.6466331 9.75263966 9 16 C4.16371695 15.00956295 -0.47618873 14.04301154 -5 12 C-3.25 10.875 -3.25 10.875 -1 10 C1.25 10.875 1.25 10.875 3 12 C3.33 11.01 3.66 10.02 4 9 C3.34 9 2.68 9 2 9 C0.50178941 5.62902617 0 3.79557881 0 0 Z " fill="#89A5BC" transform="translate(203,466)"/>
<path d="M0 0 C0.33 0.99 0.66 1.98 1 3 C0.01 4.485 0.01 4.485 -1 6 C-0.67 6.66 -0.34 7.32 0 8 C-0.598125 8.53625 -1.19625 9.0725 -1.8125 9.625 C-4.16862666 11.94493582 -4.16862666 11.94493582 -5.5 15.1875 C-7 18 -7 18 -9 18.875 C-10.6639407 18.97899629 -12.33281258 19 -14 19 C-13.01 17.515 -13.01 17.515 -12 16 C-11.34 16 -10.68 16 -10 16 C-9.7525 15.29875 -9.505 14.5975 -9.25 13.875 C-7.82819762 10.60485452 -6.12753712 7.858878 -4 5 C-3.34 5 -2.68 5 -2 5 C-1.34 3.35 -0.68 1.7 0 0 Z " fill="#7A9CBD" transform="translate(187,141)"/>
<path d="M0 0 C2.83782657 2.83782657 2.41752004 5.75412402 2.5625 9.5625 C2.35710009 14.15099227 2.35710009 14.15099227 4 18 C3.90982004 20.19050021 3.75333792 22.378466 3.5625 24.5625 C3.40974609 26.35880859 3.40974609 26.35880859 3.25390625 28.19140625 C3.17011719 29.11824219 3.08632812 30.04507812 3 31 C2.67 31 2.34 31 2 31 C0.14533035 20.55092369 -0.23049133 10.57699095 0 0 Z " fill="#7399BA" transform="translate(149,347)"/>
<path d="M0 0 C0.99 0.33 1.98 0.66 3 1 C2.67 1.99 2.34 2.98 2 4 C1.01 4.33 0.02 4.66 -1 5 C-1.495 5.680625 -1.99 6.36125 -2.5 7.0625 C-2.995 7.701875 -3.49 8.34125 -4 9 C-4.99 9 -5.98 9 -7 9 C-7.99 12.3 -8.98 15.6 -10 19 C-11.32 18.34 -12.64 17.68 -14 17 C-9.70351846 10.87151618 -5.50510597 5.09222302 0 0 Z " fill="#69A296" transform="translate(298,243)"/>
<path d="M0 0 C0.67561372 2.5395837 1.34065828 5.08118835 2 7.625 C2.19078125 8.33785156 2.3815625 9.05070312 2.578125 9.78515625 C3.65017287 13.95848544 4.21946814 17.65178751 4 22 C3.34 21.34 2.68 20.68 2 20 C2 18.68 2 17.36 2 16 C1.34 16 0.68 16 0 16 C0 13.36 0 10.72 0 8 C-1.32 7.34 -2.64 6.68 -4 6 C-3.625 3.5625 -3.625 3.5625 -3 1 C-1 0 -1 0 0 0 Z " fill="#5D9E91" transform="translate(406,280)"/>
<path d="M0 0 C0.66 0 1.32 0 2 0 C2 1.98 2 3.96 2 6 C1.34 6 0.68 6 0 6 C-0.103125 7.051875 -0.20625 8.10375 -0.3125 9.1875 C-0.98426465 12.91274033 -1.72142199 15.02032107 -4 18 C-4.99 18.33 -5.98 18.66 -7 19 C-5.17778624 12.38757278 -2.94776396 6.19479329 0 0 Z " fill="#81A2BD" transform="translate(114,259)"/>
<path d="M0 0 C0.33 0 0.66 0 1 0 C1.3669579 6.48292295 1.3669579 6.48292295 -0.375 8.9375 C-2 10 -2 10 -4 10 C-4 10.99 -4 11.98 -4 13 C-5.875 15.1875 -5.875 15.1875 -8 17 C-8.66 17 -9.32 17 -10 17 C-8.57394582 13.07297642 -6.70550338 9.75380481 -4.4375 6.25 C-3.81746094 5.28578125 -3.19742188 4.3215625 -2.55859375 3.328125 C-1 1 -1 1 0 0 Z " fill="#7699B9" transform="translate(153,189)"/>
<path d="M0 0 C0.33 0.66 0.66 1.32 1 2 C0.67 2.99 0.34 3.98 0 5 C0.66 5.33 1.32 5.66 2 6 C1.21625 6.5775 0.4325 7.155 -0.375 7.75 C-2.85389172 9.87476433 -3.74201985 11.09696889 -5 14 C-5.66 14.66 -6.32 15.32 -7 16 C-7.66 16.99 -8.32 17.98 -9 19 C-9.66 18.67 -10.32 18.34 -11 18 C-7.9790646 11.47477953 -4.23389752 5.80376964 0 0 Z " fill="#609C8E" transform="translate(340,256)"/>
<path d="M0 0 C1.32 0.66 2.64 1.32 4 2 C2.68 2.99 1.36 3.98 0 5 C0.33 5.66 0.66 6.32 1 7 C-1.78823655 8.0326802 -2.8677274 8.04509293 -5.75 7.0625 C-6.4925 6.711875 -7.235 6.36125 -8 6 C-8 5.34 -8 4.68 -8 4 C-9.32 3.67 -10.64 3.34 -12 3 C-9 2 -9 2 -6 2.0625 C-2.81532057 2.26489372 -2.81532057 2.26489372 0 0 Z " fill="#6792B8" transform="translate(191,465)"/>
<path d="M0 0 C1.32 0 2.64 0 4 0 C3.67 1.32 3.34 2.64 3 4 C2.34 4 1.68 4 1 4 C1 4.66 1 5.32 1 6 C0.34 6 -0.32 6 -1 6 C-1.268125 6.61875 -1.53625 7.2375 -1.8125 7.875 C-3 10 -3 10 -6 12 C-6.33 11.01 -6.66 10.02 -7 9 C-6.34 9 -5.68 9 -5 9 C-5 7.35 -5 5.7 -5 4 C-3.35 4 -1.7 4 0 4 C0 2.68 0 1.36 0 0 Z " fill="#809FBD" transform="translate(232,359)"/>
<path d="M0 0 C1 3 1 3 1 6 C0.34 6 -0.32 6 -1 6 C-1.226875 6.763125 -1.45375 7.52625 -1.6875 8.3125 C-3.27776454 11.56875596 -4.8683594 12.31373199 -8 14 C-8.33 14.66 -8.66 15.32 -9 16 C-9.66 15.67 -10.32 15.34 -11 15 C-7.37 10.05 -3.74 5.1 0 0 Z " fill="#799DBD" transform="translate(208,113)"/>
<path d="M0 0 C3 3 3 3 3.2487793 6.00268555 C3.19117432 7.2019165 3.13356934 8.40114746 3.07421875 9.63671875 C3.01943359 10.93544922 2.96464844 12.23417969 2.90820312 13.57226562 C2.83497036 14.94402834 2.7613983 16.31577298 2.6875 17.6875 C2.62422838 19.07089921 2.56236272 20.45436349 2.50195312 21.83789062 C2.3484777 25.2261558 2.18058886 28.61308921 2 32 C1.67 32 1.34 32 1 32 C0.67 21.44 0.34 10.88 0 0 Z " fill="#408376" transform="translate(323,315)"/>
<path d="M0 0 C0.66 0.33 1.32 0.66 2 1 C1.34 7.93 0.68 14.86 0 22 C-0.33 22 -0.66 22 -1 22 C-1.88021369 15.28837062 -2.11381955 8.76594019 -2 2 C-1.34 2 -0.68 2 0 2 C0 1.34 0 0.68 0 0 Z " fill="#749DBD" transform="translate(254,281)"/>
<path d="M0 0 C0.66 0.33 1.32 0.66 2 1 C1.86722656 1.7528125 1.73445312 2.505625 1.59765625 3.28125 C0.11736786 12.18459041 -0.56094962 20.9994672 -1 30 C-1.33 30 -1.66 30 -2 30 C-2.05869332 26.50007197 -2.09382709 23.0002728 -2.125 19.5 C-2.14175781 18.51773437 -2.15851563 17.53546875 -2.17578125 16.5234375 C-2.21499874 10.64081335 -1.70432638 5.63635497 0 0 Z " fill="#97B3CB" transform="translate(132,296)"/>
<path d="M0 0 C0.33 0.66 0.66 1.32 1 2 C1.99 2.33 2.98 2.66 4 3 C4.33 5.31 4.66 7.62 5 10 C5.99 10.33 6.98 10.66 8 11 C8 13.31 8 15.62 8 18 C5.5708627 14.98672998 3.90815875 11.9594495 2.3125 8.4375 C1.87550781 7.48746094 1.43851562 6.53742188 0.98828125 5.55859375 C0 3 0 3 0 0 Z " fill="#6C92B5" transform="translate(107,379)"/>
<path d="M0 0 C0 3.10551666 -0.5393715 4.35261084 -2 7 C-2.66 7 -3.32 7 -4 7 C-4.433125 7.928125 -4.433125 7.928125 -4.875 8.875 C-6.21335655 11.40300682 -7.98449546 12.98449546 -10 15 C-10.99 14.67 -11.98 14.34 -13 14 C-12.67 13.34 -12.34 12.68 -12 12 C-11.34 12 -10.68 12 -10 12 C-9.67 11.01 -9.34 10.02 -9 9 C-7.3777546 7.29006566 -5.70586575 5.62652316 -4 4 C-3.236875 3.236875 -2.47375 2.47375 -1.6875 1.6875 C-1.130625 1.130625 -0.57375 0.57375 0 0 Z " fill="#6BA39A" transform="translate(246,376)"/>
<path d="M0 0 C0.66 0 1.32 0 2 0 C2.33 0.99 2.66 1.98 3 3 C-2.94 8.445 -2.94 8.445 -9 14 C-9.33 12.68 -9.66 11.36 -10 10 C-9.071875 9.87625 -9.071875 9.87625 -8.125 9.75 C-5.84957521 9.20076457 -5.84957521 9.20076457 -4.875 7.125 C-4.58625 6.42375 -4.2975 5.7225 -4 5 C-3.34 4.01 -2.68 3.02 -2 2 C-1.34 2 -0.68 2 0 2 C0 1.34 0 0.68 0 0 Z " fill="#88A7C2" transform="translate(289,223)"/>
<path d="M0 0 C2 3 2 3 1.64453125 4.875 C1.36996094 5.57625 1.09539062 6.2775 0.8125 7 C-1.12598905 12.25295917 -2.57384727 17.58871127 -4 23 C-6.03125 19.3203125 -6.03125 19.3203125 -5.75 16.4375 C-5 14 -5 14 -3 11 C-2.40678131 9.11966003 -1.86904181 7.22129792 -1.375 5.3125 C-0.98441406 3.82169922 -0.98441406 3.82169922 -0.5859375 2.30078125 C-0.39257812 1.54152344 -0.19921875 0.78226562 0 0 Z " fill="#85A4C0" transform="translate(139,274)"/>
<path d="M0 0 C3.4557601 1.15192003 4.19828537 1.91134634 6 5 C6.1875 7.75 6.1875 7.75 6 10 C5.01 10 4.02 10 3 10 C0.95347258 7.16634666 -0.50245375 4.48282377 -1 1 C-0.67 0.67 -0.34 0.34 0 0 Z " fill="#6590B3" transform="translate(361,198)"/>
<path d="M0 0 C-3.07629933 3.07629933 -6.76702007 3.45536577 -11 4 C-13.44990119 3.88864086 -15.58986539 3.5127946 -18 3 C-18 2.67 -18 2.34 -18 2 C-11.92972642 -0.1583195 -6.40629424 -0.20852314 0 0 Z " fill="#599387" transform="translate(301,484)"/>
<path d="M0 0 C5.1154241 3.36156441 7.3265957 7.67594378 10 13 C9.01 13 8.02 13 7 13 C5.68359375 11.609375 5.68359375 11.609375 4.4375 9.75 C4.00953125 9.11191406 3.5815625 8.47382813 3.140625 7.81640625 C0 2.81506849 0 2.81506849 0 0 Z " fill="#7A9BBA" transform="translate(335,159)"/>
<path d="M0 0 C3.16023369 0.70227415 6.11280405 1.51738586 9 3 C9.6875 5.0625 9.6875 5.0625 10 7 C10.66 7.33 11.32 7.66 12 8 C11.01 8.495 11.01 8.495 10 9 C8.70391053 8.06862408 7.41328368 7.1296434 6.125 6.1875 C5.40570313 5.66542969 4.68640625 5.14335937 3.9453125 4.60546875 C2 3 2 3 0 0 Z " fill="#639E93" transform="translate(230,472)"/>
<path d="M0 0 C4 0 4 0 5.67578125 1.20703125 C7.267567 3.36228098 7.69319575 5.06388516 8.1875 7.6875 C8.34605469 8.49574219 8.50460938 9.30398438 8.66796875 10.13671875 C8.77753906 10.75160156 8.88710937 11.36648438 9 12 C4.99027798 8.32442148 2.54664585 4.81033104 0 0 Z " fill="#7E9EBD" transform="translate(128,420)"/>
<path d="M0 0 C0.66 0.33 1.32 0.66 2 1 C1.80664062 1.64066406 1.61328125 2.28132813 1.4140625 2.94140625 C-0.0940748 7.95110985 -1.57717786 12.96539857 -3 18 C-3.33 18 -3.66 18 -4 18 C-4.45164525 10.88658735 -3.32797915 6.28453206 0 0 Z " fill="#789BB7" transform="translate(202,399)"/>
<path d="M0 0 C0.66 0 1.32 0 2 0 C2 0.66 2 1.32 2 2 C2.8353125 2.2784375 2.8353125 2.2784375 3.6875 2.5625 C7.06754192 4.66360714 8.85140381 7.70665994 11 11 C10.67 11.66 10.34 12.32 10 13 C9.34 13 8.68 13 8 13 C8 11.68 8 10.36 8 9 C7.360625 8.7525 6.72125 8.505 6.0625 8.25 C4 7 4 7 3.25 4.875 C3.1675 4.25625 3.085 3.6375 3 3 C2.01 3 1.02 3 0 3 C0 2.01 0 1.02 0 0 Z " fill="#70A098" transform="translate(382,242)"/>
<path d="M0 0 C-0.64669414 1.34313399 -1.31903578 2.67391178 -2 4 C-2.433125 4.886875 -2.86625 5.77375 -3.3125 6.6875 C-5 9 -5 9 -7.6875 9.8125 C-8.450625 9.874375 -9.21375 9.93625 -10 10 C-10 9.34 -10 8.68 -10 8 C-9.34 8 -8.68 8 -8 8 C-7.7525 7.236875 -7.505 6.47375 -7.25 5.6875 C-5.70306331 2.36158611 -3.87029488 0 0 0 Z " fill="#6E94B7" transform="translate(219,103)"/>
<path d="M0 0 C0.99 0.33 1.98 0.66 3 1 C2.67 1.66 2.34 2.32 2 3 C2.66 3.33 3.32 3.66 4 4 C3.54625 4.37125 3.0925 4.7425 2.625 5.125 C0.52970606 7.54264685 -0.12013285 9.95430602 -1 13 C-1.66 13 -2.32 13 -3 13 C-2.52060632 8.28596212 -2.03165952 4.33420699 0 0 Z " fill="#639D93" transform="translate(219,410)"/>
<path d="M0 0 C3.17218843 3.62535821 4.42902597 7.51150278 6 12 C4.68 12 3.36 12 2 12 C1.690625 11.21625 1.38125 10.4325 1.0625 9.625 C0.07124962 7.07669872 0.07124962 7.07669872 -1 5 C-0.72057545 3.32345271 -0.39171753 1.65391846 0 0 Z " fill="#5F988E" transform="translate(394,255)"/>
<path d="M0 0 C3.69790046 1.23263349 3.9354846 2.20052451 5.6875 5.5625 C6.34298828 6.80193359 6.34298828 6.80193359 7.01171875 8.06640625 C7.33785156 8.70449219 7.66398437 9.34257813 8 10 C7.01 10.495 7.01 10.495 6 11 C5.34 10.01 4.68 9.02 4 8 C3.34 7.67 2.68 7.34 2 7 C2 6.01 2 5.02 2 4 C0.68 3.67 -0.64 3.34 -2 3 C-1.34 2.01 -0.68 1.02 0 0 Z " fill="#85A2BC" transform="translate(254,45)"/>
<path d="M0 0 C2.99324263 1.0975223 3.84610901 1.67682892 5.25 4.625 C5.4975 5.40875 5.745 6.1925 6 7 C6.66 7 7.32 7 8 7 C7.67 7.66 7.34 8.32 7 9 C5.68 8.67 4.36 8.34 3 8 C3 7.34 3 6.68 3 6 C2.01 5.67 1.02 5.34 0 5 C0 3.35 0 1.7 0 0 Z " fill="#6F95B8" transform="translate(297,109)"/>
<path d="M0 0 C1 3 1 3 -0.125 5.375 C-2.17042131 8.23858983 -4.44693946 10.58494274 -7 13 C-6.32902328 8.80639551 -4.1441606 5.59665648 -2 2 C-1.34 2 -0.68 2 0 2 C0 1.34 0 0.68 0 0 Z M-9 13 C-7 14 -7 14 -7 14 Z " fill="#589689" transform="translate(251,370)"/>
<path d="M0 0 C1.08667969 0.01804688 2.17335938 0.03609375 3.29296875 0.0546875 C4.54013672 0.08949219 4.54013672 0.08949219 5.8125 0.125 C5.8125 0.455 5.8125 0.785 5.8125 1.125 C3.89583333 1.60416667 1.97916667 2.08333333 0.0625 2.5625 C-1.00484375 2.82933594 -2.0721875 3.09617188 -3.171875 3.37109375 C-4.97395833 3.82161458 -6.77604167 4.27213542 -8.578125 4.72265625 C-9.10921875 4.85542969 -9.6403125 4.98820313 -10.1875 5.125 C-8.36812689 -0.33311934 -5.13825199 -0.11050004 0 0 Z " fill="#86A3BF" transform="translate(321.1875,209.875)"/>
<path d="M0 0 C0.33 1.32 0.66 2.64 1 4 C0.01 4.33 -0.98 4.66 -2 5 C-1.79375 5.5775 -1.5875 6.155 -1.375 6.75 C-0.91338739 9.51967567 -1.57055055 10.64561267 -3 13 C-3.99 12.01 -4.98 11.02 -6 10 C-4.87548273 7.0280615 -3.77706209 4.66559313 -2 2 C-1.34 2 -0.68 2 0 2 C0 1.34 0 0.68 0 0 Z " fill="#84A8C7" transform="translate(236,74)"/>
<path d="M0 0 C-1.8125 2 -1.8125 2 -4 4 C-4.99 4 -5.98 4 -7 4 C-7 4.66 -7 5.32 -7 6 C-7.99 6 -8.98 6 -10 6 C-10 6.66 -10 7.32 -10 8 C-10.66 7.67 -11.32 7.34 -12 7 C-9.87654283 1.40179474 -5.8147806 -0.49840977 0 0 Z " fill="#659C93" transform="translate(343,463)"/>
<path d="M0 0 C2.26273207 3.55818936 2.07331744 6.12547951 1.625 10.25 C1.51414063 11.32765625 1.40328125 12.4053125 1.2890625 13.515625 C1.19367188 14.33546875 1.09828125 15.1553125 1 16 C0.34 15.67 -0.32 15.34 -1 15 C-1.09038099 9.84828377 -0.84681133 5.08086796 0 0 Z " fill="#669B93" transform="translate(215,423)"/>
<path d="M0 0 C0.33 0.99 0.66 1.98 1 3 C0.360625 3.268125 -0.27875 3.53625 -0.9375 3.8125 C-3.33131686 4.88667752 -3.33131686 4.88667752 -4 8 C-7.0625 9.1875 -7.0625 9.1875 -10 10 C-9.34 9.01 -8.68 8.02 -8 7 C-7.34 7 -6.68 7 -6 7 C-6 6.34 -6 5.68 -6 5 C-5.34 5 -4.68 5 -4 5 C-4 4.34 -4 3.68 -4 3 C-3.34 3 -2.68 3 -2 3 C-2 2.34 -2 1.68 -2 1 C-1.34 0.67 -0.68 0.34 0 0 Z " fill="#77A9A2" transform="translate(300,400)"/>
<path d="M0 0 C0.66 0 1.32 0 2 0 C1.01 4.29 0.02 8.58 -1 13 C-1.66 12.34 -2.32 11.68 -3 11 C-3 10.01 -3 9.02 -3 8 C-3.66 7.67 -4.32 7.34 -5 7 C-4.0409375 6.1028125 -4.0409375 6.1028125 -3.0625 5.1875 C-0.79689611 3.09189663 -0.79689611 3.09189663 0 0 Z " fill="#68A095" transform="translate(311,285)"/>
<path d="M0 0 C3.21880117 3.7935871 5.6163187 7.65829477 8 12 C7.01 12.33 6.02 12.66 5 13 C5 11.68 5 10.36 5 9 C4.01 8.67 3.02 8.34 2 8 C2 6.68 2 5.36 2 4 C1.34 4 0.68 4 0 4 C0 2.68 0 1.36 0 0 Z " fill="#839EBD" transform="translate(275,76)"/>
<path d="M0 0 C0.66 0 1.32 0 2 0 C2.72750788 1.40691607 3.43140353 2.82606022 4.125 4.25 C4.51945313 5.03890625 4.91390625 5.8278125 5.3203125 6.640625 C6 9 6 9 5.1171875 11.296875 C4.74851563 11.85890625 4.37984375 12.4209375 4 13 C3.71125 12.030625 3.4225 11.06125 3.125 10.0625 C2.35785318 6.89335797 2.35785318 6.89335797 0 6 C0 4.02 0 2.04 0 0 Z " fill="#6E95B4" transform="translate(137,371)"/>
<path d="M0 0 C1.32 0.66 2.64 1.32 4 2 C2.35 3.98 0.7 5.96 -1 8 C-1.99 7.01 -2.98 6.02 -4 5 C-3.34 4.67 -2.68 4.34 -2 4 C-0.86649466 1.98330173 -0.86649466 1.98330173 0 0 Z " fill="#7198BB" transform="translate(222,370)"/>
<path d="M0 0 C0.33 0 0.66 0 1 0 C1.3690205 9.41002278 1.3690205 9.41002278 -1 14 C-1.66 14 -2.32 14 -3 14 C-2.69024532 12.22868439 -2.37709575 10.45796222 -2.0625 8.6875 C-1.88847656 7.70136719 -1.71445312 6.71523438 -1.53515625 5.69921875 C-1 3 -1 3 0 0 Z " fill="#7EA7A1" transform="translate(269,333)"/>
<path d="M0 0 C0.33 0 0.66 0 1 0 C1.93402724 5.41735797 2.20808081 8.80451575 0 14 C-0.66 14 -1.32 14 -2 14 C-1.03644647 4.58997722 -1.03644647 4.58997722 0 0 Z " fill="#6EA199" transform="translate(275,280)"/>
<path d="M0 0 C-0.99 3.3 -1.98 6.6 -3 10 C-3.99 8.68 -4.98 7.36 -6 6 C-5.3125 3.3125 -5.3125 3.3125 -4 1 C-2 0 -2 0 0 0 Z " fill="#7A9FC2" transform="translate(264,259)"/>
<path d="M0 0 C3.14737182 0.69941596 6.02588876 1.76078698 9 3 C9 4.32 9 5.64 9 7 C5.535 5.02 5.535 5.02 2 3 C2 2.34 2 1.68 2 1 C1.34 0.67 0.68 0.34 0 0 Z " fill="#759ABC" transform="translate(156,451)"/>
<path d="M0 0 C2.4294516 3.6441774 2.16179575 5.71241272 2 10 C1.01 10 0.02 10 -1 10 C-1.99 10.495 -1.99 10.495 -3 11 C-2.67 10.278125 -2.34 9.55625 -2 8.8125 C-0.99090829 5.97442956 -0.91738534 3.9741277 -1 1 C-0.67 0.67 -0.34 0.34 0 0 Z " fill="#5785AD" transform="translate(108,277)"/>
<path d="M0 0 C0.66 0.99 1.32 1.98 2 3 C1.34 3 0.68 3 0 3 C0.061875 4.11375 0.061875 4.11375 0.125 5.25 C-0.00398134 8.08758952 -0.57051222 9.58773938 -2 12 C-4 11 -4 11 -5 9 C-4.00390625 6.8359375 -4.00390625 6.8359375 -2.5625 4.375 C-2.08941406 3.55773438 -1.61632812 2.74046875 -1.12890625 1.8984375 C-0.75636719 1.27195313 -0.38382813 0.64546875 0 0 Z " fill="#7A9CBA" transform="translate(245,59)"/>
<path d="M0 0 C0 3.28176588 -0.47835901 5.10888212 -2 8 C-4.125 8.8125 -4.125 8.8125 -6 9 C-5.52797514 4.75177626 -3.03344482 2.80010291 0 0 Z " fill="#5D968C" transform="translate(309,390)"/>
<path d="M0 0 C0.33 0 0.66 0 1 0 C1.04254356 1.99954746 1.04080783 4.00041636 1 6 C0.67 6.33 0.34 6.66 0 7 C0.03222338 8.99784929 0.06809043 10.99620053 0.16015625 12.9921875 C0 15 0 15 -2 18 C-2 13.38 -2 8.76 -2 4 C-1.34 4 -0.68 4 0 4 C0 2.68 0 1.36 0 0 Z " fill="#5684B0" transform="translate(152,294)"/>
<path d="M0 0 C1.32 0.66 2.64 1.32 4 2 C1.64619703 5.92300495 -0.64464931 6.83857315 -5 8 C-4.34 6.68 -3.68 5.36 -3 4 C-2.34 4 -1.68 4 -1 4 C-0.67 2.68 -0.34 1.36 0 0 Z " fill="#7294B7" transform="translate(178,153)"/>
<path d="M0 0 C0.66 0 1.32 0 2 0 C1.49396008 2.16874252 1.00016187 3.99967627 0 6 C-0.66 6 -1.32 6 -2 6 C-2.66 7.32 -3.32 8.64 -4 10 C-4.33 8.68 -4.66 7.36 -5 6 C-4.34 6 -3.68 6 -3 6 C-3 5.34 -3 4.68 -3 4 C-2.34 4 -1.68 4 -1 4 C-0.67 2.68 -0.34 1.36 0 0 Z " fill="#6C9F96" transform="translate(282,402)"/>
<path d="M0 0 C0.33 0.66 0.66 1.32 1 2 C2.32 1.67 3.64 1.34 5 1 C3.625 3 3.625 3 2 5 C1.34 5 0.68 5 0 5 C-0.33 5.99 -0.66 6.98 -1 8 C-1.66 8 -2.32 8 -3 8 C-1.125 2.25 -1.125 2.25 0 0 Z " fill="#5A9E92" transform="translate(313,380)"/>
<path d="M0 0 C0.66 0 1.32 0 2 0 C2 1.98 2 3.96 2 6 C1.34 6 0.68 6 0 6 C0 6.66 0 7.32 0 8 C-0.99 8.33 -1.98 8.66 -3 9 C-2.01 6.03 -1.02 3.06 0 0 Z " fill="#7598B5" transform="translate(114,259)"/>
<path d="M0 0 C4 5 4 5 8 10 C7.01 10.33 6.02 10.66 5 11 C4.15504811 9.92570402 3.32445142 8.84010798 2.5 7.75 C2.0359375 7.14671875 1.571875 6.5434375 1.09375 5.921875 C0 4 0 4 0 0 Z " fill="#789BB6" transform="translate(283,88)"/>
<path d="M0 0 C1 3 1 3 0.00390625 5.26171875 C-0.47175781 6.06222656 -0.94742188 6.86273438 -1.4375 7.6875 C-1.91058594 8.49574219 -2.38367188 9.30398438 -2.87109375 10.13671875 C-3.24363281 10.75160156 -3.61617187 11.36648438 -4 12 C-4.93423645 8.98968256 -5.04449911 8.13349732 -4 5 C-3.34 5 -2.68 5 -2 5 C-2 4.01 -2 3.02 -2 2 C-1.34 2 -0.68 2 0 2 C0 1.34 0 0.68 0 0 Z " fill="#8CA7BE" transform="translate(248,339)"/>
<path d="M0 0 C1.32 0.99 2.64 1.98 4 3 C3.01 4.485 3.01 4.485 2 6 C1.01 6 0.02 6 -1 6 C-1.33 6.99 -1.66 7.98 -2 9 C-2 6.69 -2 4.38 -2 2 C-1.34 2 -0.68 2 0 2 C0 1.34 0 0.68 0 0 Z " fill="#398577" transform="translate(275,292)"/>
<path d="M0 0 C0.66 0 1.32 0 2 0 C0.515 6.435 0.515 6.435 -1 13 C-3 10 -3 10 -2.75 7.0625 C-2.09911834 4.40473321 -1.35855538 2.35482933 0 0 Z " fill="#92B1C9" transform="translate(258,269)"/>
<path d="M0 0 C2.74277578 3.19990508 4.6302836 6.00499382 6 10 C4.125 9.8125 4.125 9.8125 2 9 C0.21715186 5.70173093 0 3.8225249 0 0 Z " fill="#7597B7" transform="translate(203,466)"/>
<path d="M0 0 C0.99 0.33 1.98 0.66 3 1 C1.02 3.31 -0.96 5.62 -3 8 C-3.66 7.67 -4.32 7.34 -5 7 C-5 6.34 -5 5.68 -5 5 C-4.01 5 -3.02 5 -2 5 C-2 3.68 -2 2.36 -2 1 C-1.34 0.67 -0.68 0.34 0 0 Z " fill="#82A1BC" transform="translate(216,379)"/>
<path d="M0 0 C2.23551759 3.35327639 2.17283528 3.90743657 1.625 7.6875 C1.51414063 8.49574219 1.40328125 9.30398438 1.2890625 10.13671875 C1.19367188 10.75160156 1.09828125 11.36648438 1 12 C0.34 12 -0.32 12 -1 12 C-0.67 8.04 -0.34 4.08 0 0 Z " fill="#89A8C4" transform="translate(151,286)"/>
<path d="M0 0 C-2.9432656 1.96217707 -5.75978738 3.58240698 -9 5 C-9.99 4.67 -10.98 4.34 -12 4 C-11.34 4 -10.68 4 -10 4 C-10 3.34 -10 2.68 -10 2 C-6.49223216 0.39644899 -3.85645121 -0.22036864 0 0 Z " fill="#81AFA8" transform="translate(320,477)"/>
<path d="M0 0 C2.475 0.495 2.475 0.495 5 1 C5.33 2.65 5.66 4.3 6 6 C5.01 6 4.02 6 3 6 C2.01 4.02 1.02 2.04 0 0 Z " fill="#82A3BF" transform="translate(121,410)"/>
<path d="M0 0 C1.32 0 2.64 0 4 0 C3.40138258 2.35171131 2.73075648 4.6859378 2 7 C1.01 7.495 1.01 7.495 0 8 C-1.125 2.25 -1.125 2.25 0 0 Z " fill="#5A968A" transform="translate(395,391)"/>
<path d="M0 0 C-2.88087546 2.40072955 -5.56404834 4.47291037 -9 6 C-9.33 5.01 -9.66 4.02 -10 3 C-6.48812804 0.59185923 -4.27343092 -0.36629408 0 0 Z " fill="#7EA4C1" transform="translate(302,219)"/>
<path d="M0 0 C2.40072955 2.88087546 4.47291037 5.56404834 6 9 C4 8 2 7 0 6 C0 4.02 0 2.04 0 0 Z " fill="#7698B7" transform="translate(266,63)"/>
<path d="M0 0 C0.625 1.8125 0.625 1.8125 1 4 C0.01 5.485 0.01 5.485 -1 7 C-1.66 7 -2.32 7 -3 7 C-3 5.35 -3 3.7 -3 2 C-2.01 2 -1.02 2 0 2 C0 1.34 0 0.68 0 0 Z " fill="#3D897B" transform="translate(230,396)"/>
<path d="M0 0 C0.66 0 1.32 0 2 0 C1.14285714 8.57142857 1.14285714 8.57142857 -1 12 C-1.99352844 8.90902264 -1.96367132 7.08374821 -1 4 C-0.814375 3.2575 -0.62875 2.515 -0.4375 1.75 C-0.293125 1.1725 -0.14875 0.595 0 0 Z " fill="#6FA29B" transform="translate(303,358)"/>
<path d="M0 0 C2.80045623 3.14591933 3.35261589 5.067064 3.1875 9.25 C3.16042969 10.14203125 3.13335937 11.0340625 3.10546875 11.953125 C3.07066406 12.62859375 3.03585938 13.3040625 3 14 C2.67 14 2.34 14 2 14 C-0.29612756 4.58997722 -0.29612756 4.58997722 0 0 Z " fill="#90AFC9" transform="translate(100,351)"/>
<path d="M0 0 C0.66 0 1.32 0 2 0 C2.33 0.99 2.66 1.98 3 3 C1.02 4.32 -0.96 5.64 -3 7 C-3 4 -3 4 -2 2 C-1.34 2 -0.68 2 0 2 C0 1.34 0 0.68 0 0 Z " fill="#7496BB" transform="translate(289,223)"/>
<path d="M0 0 C0.99 0.33 1.98 0.66 3 1 C1.9024777 3.99324263 1.32317108 4.84610901 -1.625 6.25 C-2.40875 6.4975 -3.1925 6.745 -4 7 C-2.79618552 4.50638429 -1.54571278 2.31856917 0 0 Z " fill="#7EA1BE" transform="translate(166,170)"/>
<path d="M0 0 C0.66 0 1.32 0 2 0 C1.43628586 3.26954202 0.50037734 4.82575883 -2 7 C-2 6.01 -2 5.02 -2 4 C-2.66 3.67 -3.32 3.34 -4 3 C-2.68 2.67 -1.36 2.34 0 2 C0 1.34 0 0.68 0 0 Z " fill="#5F9D91" transform="translate(378,424)"/>
<path d="M0 0 C0.66 0 1.32 0 2 0 C1.45773019 3.79588866 -0.20127563 5.47211993 -3 8 C-3.33 7.01 -3.66 6.02 -4 5 C-3.01 5 -2.02 5 -1 5 C-0.67 3.35 -0.34 1.7 0 0 Z " fill="#73A59A" transform="translate(385,414)"/>
<path d="M0 0 C0.33 0.66 0.66 1.32 1 2 C1.99 2.33 2.98 2.66 4 3 C-1.445 4.485 -1.445 4.485 -7 6 C-2.25 1.125 -2.25 1.125 0 0 Z " fill="#81B0A8" transform="translate(289,410)"/>
<path d="M0 0 C0.66 0.99 1.32 1.98 2 3 C0.7260411 5.03833424 -0.61061923 7.03852126 -2 9 C-2.66 9 -3.32 9 -4 9 C-3.34 7.02 -2.68 5.04 -2 3 C-1.34 3 -0.68 3 0 3 C0 2.01 0 1.02 0 0 Z " fill="#75A69E" transform="translate(226,398)"/>
<path d="M0 0 C0.33 0.66 0.66 1.32 1 2 C1.99 2.33 2.98 2.66 4 3 C4 5.31 4 7.62 4 10 C1.16625119 6.79663178 0.4794463 4.21912747 0 0 Z " fill="#9CB6CB" transform="translate(107,379)"/>
<path d="M0 0 C1.61949011 2.57213134 2.04408751 3.67669159 1.625 6.75 C1.41875 7.4925 1.2125 8.235 1 9 C0.01 9 -0.98 9 -2 9 C-1.51421457 5.87709365 -1.0013988 3.00419641 0 0 Z " fill="#6A9F97" transform="translate(328,275)"/>
<path d="M0 0 C0.99 0.33 1.98 0.66 3 1 C1.35 2.98 -0.3 4.96 -2 7 C-2.33 5.68 -2.66 4.36 -3 3 C-2.01 2.67 -1.02 2.34 0 2 C0 1.34 0 0.68 0 0 Z " fill="#71A39B" transform="translate(323,266)"/>
<path d="M0 0 C0.99 0 1.98 0 3 0 C1.7508258 3.45925163 0.32472205 6.14693203 -2 9 C-2.25 3.375 -2.25 3.375 0 0 Z " fill="#8CABC6" transform="translate(266,250)"/>
<path d="M0 0 C4 4.75 4 4.75 4 7 C2.68 6.67 1.36 6.34 0 6 C-1.125 2.25 -1.125 2.25 0 0 Z " fill="#799CBB" transform="translate(262,56)"/>
<path d="M0 0 C0.66 0.33 1.32 0.66 2 1 C2 1.99 2 2.98 2 4 C0 5.6875 0 5.6875 -2 7 C-1.125 1.125 -1.125 1.125 0 0 Z " fill="#6FA69E" transform="translate(362,442)"/>
<path d="M0 0 C0.99 0.33 1.98 0.66 3 1 C1.25 6.75 1.25 6.75 -1 9 C-1.33 7.68 -1.66 6.36 -2 5 C-1.67 5 -1.34 5 -1 5 C-0.67 3.35 -0.34 1.7 0 0 Z " fill="#73AAA0" transform="translate(391,401)"/>
<path d="M0 0 C0.99 0.33 1.98 0.66 3 1 C1.92598892 3.91517292 1.22189824 5.77810176 -1 8 C-1.125 2.25 -1.125 2.25 0 0 Z " fill="#649F92" transform="translate(315,275)"/>
<path d="M0 0 C1.33332095 2.6666419 0.67102033 4.16680303 0 7 C-1.32 6.34 -2.64 5.68 -4 5 C-2.68 3.35 -1.36 1.7 0 0 Z " fill="#59968B" transform="translate(288,255)"/>
<path d="M0 0 C0.66 0 1.32 0 2 0 C1.49287967 3.71888239 0.88391785 6.73454239 -1 10 C-2.27351308 7.45297384 -1.80191925 6.5717055 -1.0625 3.875 C-0.86785156 3.15054688 -0.67320312 2.42609375 -0.47265625 1.6796875 C-0.31667969 1.12539062 -0.16070312 0.57109375 0 0 Z " fill="#7A9AB7" transform="translate(163,243)"/>
<path d="M0 0 C0.66 0 1.32 0 2 0 C1.34 2.31 0.68 4.62 0 7 C-0.99 6.34 -1.98 5.68 -3 5 C-1.625 2.5 -1.625 2.5 0 0 Z " fill="#7A99B8" transform="translate(131,225)"/>
<path d="M0 0 C2.62187494 1.04874998 3.79371361 1.64931313 5.25 4.125 C5.4975 4.74375 5.745 5.3625 6 6 C3.69 5.01 1.38 4.02 -1 3 C-0.67 2.01 -0.34 1.02 0 0 Z " fill="#7699B9" transform="translate(348,179)"/>
<path d="M0 0 C2.0625 0.4375 2.0625 0.4375 4 1 C3.34 1 2.68 1 2 1 C1.731875 1.61875 1.46375 2.2375 1.1875 2.875 C0 5 0 5 -3 7 C-1.125 1.125 -1.125 1.125 0 0 Z " fill="#5A85AF" transform="translate(195,132)"/>
<path d="M0 0 C0.33 0.66 0.66 1.32 1 2 C0.06421005 4.35981813 -0.93347808 6.69631264 -2 9 C-2.66 9 -3.32 9 -4 9 C-3.46930939 5.17902761 -2.50298434 2.93828597 0 0 Z " fill="#7FA2BC" transform="translate(229,84)"/>
<path d="M0 0 C-2.91708924 1.98362069 -4.12380904 1.9876191 -7.75 1.625 C-8.8225 1.41875 -9.895 1.2125 -11 1 C-11 0.67 -11 0.34 -11 0 C-7.01803543 -1.05404945 -4.01804691 -0.84098656 0 0 Z " fill="#609C92" transform="translate(294,486)"/>
<path d="M0 0 C2.4375 1.1875 2.4375 1.1875 5 3 C5.8125 5.6875 5.8125 5.6875 6 8 C5.34 7.67 4.68 7.34 4 7 C4 6.34 4 5.68 4 5 C3.34 5 2.68 5 2 5 C1.34 3.35 0.68 1.7 0 0 Z " fill="#7CB0A5" transform="translate(224,464)"/>
<path d="M0 0 C0.66 0.33 1.32 0.66 2 1 C2.1875 3.375 2.1875 3.375 2 6 C1.01 6.66 0.02 7.32 -1 8 C-1.33 7.01 -1.66 6.02 -2 5 C-1.34 5 -0.68 5 0 5 C0 3.35 0 1.7 0 0 Z " fill="#6E95BB" transform="translate(227,363)"/>
<path d="M0 0 C0.66 1.32 1.32 2.64 2 4 C0.68 5.32 -0.64 6.64 -2 8 C-2.33 7.34 -2.66 6.68 -3 6 C-2.06553465 3.96855359 -1.06775224 1.96466413 0 0 Z " fill="#89ADC7" transform="translate(124,237)"/>
<path d="M0 0 C0.33 0.66 0.66 1.32 1 2 C1.66 2.33 2.32 2.66 3 3 C1.68 4.32 0.36 5.64 -1 7 C-1.99 6.67 -2.98 6.34 -4 6 C-2.68 4.02 -1.36 2.04 0 0 Z " fill="#82A3C0" transform="translate(172,161)"/>
<path d="M0 0 C0.33 0.66 0.66 1.32 1 2 C0.06553465 4.03144641 -0.93224776 6.03533587 -2 8 C-2.99 7.67 -3.98 7.34 -5 7 C-3.35 4.69 -1.7 2.38 0 0 Z " fill="#8CABC4" transform="translate(193,133)"/>
</svg>
